<?xml version="1.0" encoding="UTF-8"?>
<svg xmlns="http://www.w3.org/2000/svg" viewBox="0 0 628.53 632.53">
  <defs>
    <style>
      .cls-1, .cls-2, .cls-3, .cls-4, .cls-5, .cls-6 {
        stroke: #231f20;
      }

      .cls-1, .cls-2, .cls-4, .cls-6 {
        stroke-linejoin: round;
      }

      .cls-1, .cls-4, .cls-7, .cls-5, .cls-6 {
        fill: #231f20;
      }

      .cls-2 {
        stroke-width: 3px;
      }

      .cls-2, .cls-3, .cls-8 {
        fill: none;
      }

      .cls-2, .cls-4, .cls-6 {
        stroke-linecap: round;
      }

      .cls-3 {
        stroke-width: 10px;
      }

      .cls-3, .cls-5 {
        stroke-miterlimit: 10;
      }

      .cls-8, .cls-7 {
        stroke-width: 0px;
      }

      .cls-5 {
        font-family: MyriadPro-Regular, 'Myriad Pro';
        font-size: 60px;
        stroke-width: 2px;
      }

      .cls-6 {
        stroke-width: 5px;
      }
    </style>
  </defs>
  <g id="Layer_1" data-name="Layer 1">
    <path class="cls-6" d="m243.18,423.01c59.27-30.14,99.42-90.98,98.56-160.63-.8-64.83-36.92-121.16-90.3-151.78,65.19,23.01,111.74,83.66,111.74,154.87s-50.52,136.9-120,157.55Z"/>
    <g>
      <path class="cls-2" d="m415.51,518.49c-24.1,19.94-41.43,32.63-41.43,32.63"/>
      <path class="cls-2" d="m562.92,105.31s-161.11,127.29-34.95,184.02c60.1,27.02,28.02,87.71-22.06,143.85"/>
      <path class="cls-2" d="m545.38,91.54s-182.03,151.33-55.88,208.06c75.21,33.82,8.83,115.72-57.05,176.35"/>
      <path class="cls-2" d="m346.51,518.49c-24.18,19.06-41.88,31.24-41.88,31.24"/>
      <path class="cls-2" d="m529.41,78.88c-12.63,10.41-203.61,174.95-82.47,229.42,79.25,35.64,2.77,121.78-65.05,180.91"/>
    </g>
    <circle class="cls-3" cx="350.03" cy="278.5" r="273.5"/>
    <g>
      <polygon class="cls-7" points="484.92 185.26 495.99 197.41 486.81 204.92 478.39 204.37 468.71 188.14 484.92 185.26"/>
      <g>
        <polygon class="cls-1" points="448.97 187.51 466.9 197.47 427.93 269.45 405.72 255.47 448.97 187.51"/>
        <path class="cls-1" d="m449.44,143.56s5.3-2.23,7.61,9.45c2.31,11.68-7.78,16.11-7.78,16.11"/>
        <ellipse class="cls-1" cx="449.53" cy="156" rx="13" ry="6" transform="translate(290.69 604.53) rotate(-89.64)"/>
        <polygon class="cls-1" points="489.94 157.86 508.56 125.45 495.49 115.84 467.61 161.87 489.94 157.86"/>
        <g>
          <rect class="cls-1" x="400.39" y="218.27" width="75.36" height="17.15" transform="translate(19.89 488.56) rotate(-59.42)"/>
          <line class="cls-1" x1="417.91" y1="244.11" x2="432.67" y2="252.84"/>
          <line class="cls-1" x1="424.3" y1="233.3" x2="439.07" y2="242.02"/>
          <line class="cls-1" x1="430.69" y1="222.48" x2="445.46" y2="231.21"/>
          <line class="cls-1" x1="437.08" y1="211.67" x2="451.85" y2="220.4"/>
          <line class="cls-1" x1="443.47" y1="200.86" x2="458.24" y2="209.58"/>
          <line class="cls-1" x1="462.17" y1="197.32" x2="423.82" y2="262.2"/>
          <line class="cls-1" x1="459.71" y1="195.86" x2="421.36" y2="260.74"/>
          <line class="cls-1" x1="457.25" y1="194.41" x2="418.9" y2="259.29"/>
          <line class="cls-1" x1="454.79" y1="192.95" x2="416.44" y2="257.83"/>
          <line class="cls-1" x1="452.32" y1="191.5" x2="413.98" y2="256.38"/>
        </g>
        <g>
          <rect class="cls-1" x="466.31" y="136.04" width="45.05" height="11.88" transform="translate(104.26 475.48) rotate(-57.13)"/>
          <line class="cls-1" x1="475.69" y1="151.37" x2="485.68" y2="157.82"/>
          <line class="cls-1" x1="479.77" y1="145.06" x2="489.75" y2="151.51"/>
          <line class="cls-1" x1="483.85" y1="138.76" x2="493.83" y2="145.21"/>
          <line class="cls-1" x1="487.92" y1="132.45" x2="497.9" y2="138.9"/>
          <line class="cls-1" x1="492" y1="126.14" x2="501.98" y2="132.59"/>
          <line class="cls-1" x1="504.39" y1="125.21" x2="479.94" y2="163.05"/>
          <line class="cls-1" x1="502.73" y1="124.14" x2="478.27" y2="161.98"/>
          <line class="cls-1" x1="501.06" y1="123.06" x2="476.61" y2="160.9"/>
          <line class="cls-1" x1="499.4" y1="121.99" x2="474.95" y2="159.83"/>
          <line class="cls-1" x1="497.74" y1="120.91" x2="473.28" y2="158.75"/>
        </g>
        <polygon class="cls-4" points="448.97 187.51 456.13 187.14 451.64 180.4 452.22 167.2 455.45 164.06 489.94 157.86 499.92 172.56 493.5 187.25 464.84 192.34 466.9 197.47 448.97 187.51"/>
      </g>
    </g>
    <line class="cls-8" x1="198.36" y1="86.11" x2="202.77" y2="443.11"/>
    <g>
      <path class="cls-7" d="m201.63,335.88c0,8.29,6.71,15,15,15-8.29,0-15,6.71-15,15,0-8.29-6.71-15-15-15,8.29,0,15-6.71,15-15Z"/>
      <path class="cls-2" d="m201.63,335.88c0,8.29,6.71,15,15,15-8.29,0-15,6.71-15,15,0-8.29-6.71-15-15-15,8.29,0,15-6.71,15-15Z"/>
    </g>
    <g>
      <path class="cls-7" d="m298.83,30.39c0,8.29,6.71,15,15,15-8.29,0-15,6.71-15,15,0-8.29-6.71-15-15-15,8.29,0,15-6.71,15-15Z"/>
      <path class="cls-2" d="m298.83,30.39c0,8.29,6.71,15,15,15-8.29,0-15,6.71-15,15,0-8.29-6.71-15-15-15,8.29,0,15-6.71,15-15Z"/>
    </g>
    <g>
      <path class="cls-7" d="m433.15,60.39c0,8.29,6.71,15,15,15-8.29,0-15,6.71-15,15,0-8.29-6.71-15-15-15,8.29,0,15-6.71,15-15Z"/>
      <path class="cls-2" d="m433.15,60.39c0,8.29,6.71,15,15,15-8.29,0-15,6.71-15,15,0-8.29-6.71-15-15-15,8.29,0,15-6.71,15-15Z"/>
    </g>
  </g>
  <g id="Layer_2" data-name="Layer 2">
    <text class="cls-5" transform="translate(90.31 255.4) rotate(91.88) scale(1.12 1)"><tspan x="0" y="0">D</tspan></text>
    <text class="cls-5" transform="translate(90.24 309.27) rotate(79.2) scale(1.12 1)"><tspan x="0" y="0">e</tspan></text>
    <text class="cls-5" transform="translate(98.83 349.37) rotate(69.95) scale(1.12 1)"><tspan x="0" y="0">s</tspan></text>
    <text class="cls-5" transform="translate(110.7 380.24) rotate(62.7) scale(1.12 1)"><tspan x="0" y="0">t</tspan></text>
    <text class="cls-5" transform="translate(123.94 404.92) rotate(57.08) scale(1.12 1)"><tspan x="0" y="0">i</tspan></text>
    <text class="cls-5" transform="translate(135.85 423.75) rotate(49.82) scale(1.12 1)"><tspan x="0" y="0">n</tspan></text>
    <text class="cls-5" transform="translate(165.15 457.24) rotate(40.86) scale(1.12 1)"><tspan x="0" y="0">a</tspan></text>
    <text class="cls-5" transform="translate(194.65 481.85) rotate(33.92) scale(1.12 1)"><tspan x="0" y="0">t</tspan></text>
    <text class="cls-5" transform="translate(217.86 497) rotate(28.94) scale(1.12 1)"><tspan x="0" y="0">i</tspan></text>
    <text class="cls-5" transform="translate(236.94 507.81) rotate(22.47) scale(1.12 1)"><tspan x="0" y="0">o</tspan></text>
    <text class="cls-5" transform="translate(277.92 524.17) rotate(13.47) scale(1.12 1)"><tspan x="0" y="0">n</tspan></text>
    <text class="cls-5" transform="translate(320.38 533.28) rotate(6.79) scale(1.12 1)"><tspan x="0" y="0"> </tspan></text>
    <text class="cls-5" transform="translate(340.61 535.87) rotate(.44) scale(1.12 1)"><tspan x="0" y="0">S</tspan></text>
    <text class="cls-5" transform="translate(381.09 535.71) rotate(-8.73) scale(1.12 1)"><tspan x="0" y="0">P</tspan></text>
    <text class="cls-5" transform="translate(418.17 530.11) rotate(-17.95) scale(1.12 1)"><tspan x="0" y="0">A</tspan></text>
    <text class="cls-5" transform="translate(464.07 514.38) rotate(-29.5) scale(1.12 1)"><tspan x="0" y="0">C</tspan></text>
    <text class="cls-5" transform="translate(504.73 490.09) rotate(-41.08) scale(1.12 1)"><tspan x="0" y="0">E</tspan></text>
  </g>
</svg>