<?xml version="1.0" encoding="utf-8"?>
<!-- Generator: Adobe Illustrator 27.9.0, SVG Export Plug-In . SVG Version: 6.00 Build 0)  -->
<svg version="1.1" id="Layer_1" xmlns="http://www.w3.org/2000/svg" xmlns:xlink="http://www.w3.org/1999/xlink" x="0px" y="0px"
	 viewBox="0 0 28.35 28.35" style="enable-background:new 0 0 28.35 28.35;" xml:space="preserve">
<style type="text/css">
	.st0{fill:none;stroke:#000000;stroke-width:0.3402;stroke-miterlimit:10;}
	.st1{stroke:#000000;stroke-width:0.3402;stroke-linecap:round;stroke-linejoin:round;stroke-miterlimit:10;}
	.st2{fill:none;}
	.st3{fill:none;stroke:#000000;stroke-width:0.3402;stroke-linecap:round;stroke-linejoin:round;stroke-miterlimit:10;}
	.st4{stroke:#000000;stroke-width:0.3402;stroke-linejoin:round;stroke-miterlimit:10;}
</style>
<path class="st0" d="M6.06,22.03"/>
<path class="st0" d="M4.38,22.7"/>
<path class="st1" d="M8.64,21.66c3.07-1.56,5.15-4.71,5.11-8.32c-0.04-3.36-1.91-6.28-4.68-7.87c3.38,1.19,5.79,4.34,5.79,8.03
	C14.85,17.34,12.24,20.59,8.64,21.66z"/>
<line class="st2" x1="11.66" y1="10.62" x2="11.66" y2="10.57"/>
<g>
	<path class="st3" d="M22.25,22.19"/>
	<path class="st3" d="M25.1,5.29c0,0-8.24,6.51-1.7,9.45c2.95,1.33,1.61,4.23-0.75,7"/>
	<path class="st3" d="M18.45,24.41"/>
	<path class="st3" d="M24.36,4.43c0,0-9.5,7.9-2.96,10.84c3.73,1.68,0.73,5.64-2.53,8.74"/>
	<path class="st3" d="M13.81,26.75c-1.25,0.99-1.82,1.36-1.82,1.36"/>
	<path class="st3" d="M23.67,3.65c-0.65,0.54-10.4,8.94-4.13,11.77c4.11,1.85,0.14,6.31-3.37,9.38"/>
</g>
<circle class="st0" cx="14.17" cy="14.17" r="14.17"/>
<g>
	<polygon points="21.16,9.34 21.74,9.97 21.26,10.36 20.82,10.33 20.32,9.49 	"/>
	<g>
		<polygon class="st4" points="19.3,9.46 20.23,9.97 18.21,13.7 17.06,12.98 		"/>
		<path class="st4" d="M19.33,7.18c0,0,0.27-0.12,0.39,0.49c0.12,0.61-0.4,0.83-0.4,0.83"/>
		
			<ellipse transform="matrix(6.310805e-03 -1 1 6.310805e-03 11.3826 27.1048)" class="st4" cx="19.33" cy="7.83" rx="0.67" ry="0.31"/>
		<polygon class="st4" points="21.42,7.92 22.39,6.24 21.71,5.74 20.27,8.13 		"/>
		<g>
			
				<rect x="16.78" y="11.05" transform="matrix(0.5088 -0.8609 0.8609 0.5088 -0.6942 21.7765)" class="st4" width="3.91" height="0.89"/>
			<line class="st4" x1="17.69" y1="12.39" x2="18.46" y2="12.84"/>
			<line class="st4" x1="18.02" y1="11.83" x2="18.79" y2="12.28"/>
			<line class="st4" x1="18.35" y1="11.27" x2="19.12" y2="11.72"/>
			<line class="st4" x1="18.68" y1="10.71" x2="19.45" y2="11.16"/>
			<line class="st4" x1="19.02" y1="10.15" x2="19.78" y2="10.6"/>
			<line class="st4" x1="19.98" y1="9.97" x2="18" y2="13.33"/>
			<line class="st4" x1="19.86" y1="9.89" x2="17.87" y2="13.25"/>
			<line class="st4" x1="19.73" y1="9.82" x2="17.74" y2="13.18"/>
			<line class="st4" x1="19.6" y1="9.74" x2="17.61" y2="13.1"/>
			<line class="st4" x1="19.47" y1="9.66" x2="17.49" y2="13.03"/>
		</g>
		<g>
			
				<rect x="20.2" y="6.79" transform="matrix(0.5428 -0.8399 0.8399 0.5428 3.8072 21.1907)" class="st4" width="2.33" height="0.62"/>
			<line class="st4" x1="20.69" y1="7.59" x2="21.2" y2="7.92"/>
			<line class="st4" x1="20.9" y1="7.26" x2="21.41" y2="7.59"/>
			<line class="st4" x1="21.11" y1="6.93" x2="21.63" y2="7.27"/>
			<line class="st4" x1="21.32" y1="6.6" x2="21.84" y2="6.94"/>
			<line class="st4" x1="21.53" y1="6.28" x2="22.05" y2="6.61"/>
			<line class="st4" x1="22.17" y1="6.23" x2="20.91" y2="8.19"/>
			<line class="st4" x1="22.09" y1="6.17" x2="20.82" y2="8.13"/>
			<line class="st4" x1="22" y1="6.12" x2="20.73" y2="8.08"/>
			<line class="st4" x1="21.91" y1="6.06" x2="20.65" y2="8.02"/>
			<line class="st4" x1="21.83" y1="6.01" x2="20.56" y2="7.97"/>
		</g>
		<polygon class="st1" points="19.3,9.46 19.67,9.44 19.44,9.09 19.47,8.41 19.64,8.24 21.42,7.92 21.94,8.68 21.61,9.44 
			20.12,9.71 20.23,9.97 		"/>
	</g>
</g>
<line class="st2" x1="6.31" y1="4.2" x2="6.54" y2="22.7"/>
<g id="XMLID_00000062183467182422941650000000479531515928444293_">
	<g>
		<path d="M6.48,17.15c0,0.43,0.35,0.78,0.78,0.78c-0.43,0-0.78,0.35-0.78,0.78c0-0.43-0.35-0.78-0.78-0.78
			C6.14,17.92,6.48,17.58,6.48,17.15z"/>
	</g>
	<g>
		<path class="st3" d="M6.48,17.15c0,0.43,0.35,0.78,0.78,0.78c-0.43,0-0.78,0.35-0.78,0.78c0-0.43-0.35-0.78-0.78-0.78
			C6.14,17.92,6.48,17.58,6.48,17.15z"/>
	</g>
</g>
<g id="XMLID_00000143596308070812199820000004089543767918119300_">
	<g>
		<path d="M11.52,1.32c0,0.43,0.35,0.78,0.78,0.78c-0.43,0-0.78,0.35-0.78,0.78c0-0.43-0.35-0.78-0.78-0.78
			C11.17,2.09,11.52,1.75,11.52,1.32z"/>
	</g>
	<g>
		<path class="st3" d="M11.52,1.32c0,0.43,0.35,0.78,0.78,0.78c-0.43,0-0.78,0.35-0.78,0.78c0-0.43-0.35-0.78-0.78-0.78
			C11.17,2.09,11.52,1.75,11.52,1.32z"/>
	</g>
</g>
<g id="XMLID_00000111191406784378497730000001389517865595000218_">
	<g>
		<path d="M18.48,2.87c0,0.43,0.35,0.78,0.78,0.78c-0.43,0-0.78,0.35-0.78,0.78c0-0.43-0.35-0.78-0.78-0.78
			C18.13,3.65,18.48,3.3,18.48,2.87z"/>
	</g>
	<g>
		<path class="st3" d="M18.48,2.87c0,0.43,0.35,0.78,0.78,0.78c-0.43,0-0.78,0.35-0.78,0.78c0-0.43-0.35-0.78-0.78-0.78
			C18.13,3.65,18.48,3.3,18.48,2.87z"/>
	</g>
</g>
<path id="SVGID_x5F_1_x5F_" class="st2" d="M1.42,10.55c-2.3,5.82,0.87,12.74,7.29,15.66c6.6,3.01,14.15,0.65,16.85-5.27"/>
<text><textPath  xlink:href="#SVGID_x5F_1_x5F_" startOffset="0%">
<tspan  style="stroke:#000000;stroke-width:0.2835;stroke-miterlimit:10; font-family:'MyriadPro-Regular'; font-size:3.1093px; letter-spacing:44.83;">Destination SPACE</tspan></textPath>
</text>
</svg>
